<svg xmlns="http://www.w3.org/2000/svg" viewBox="0 0 41 37">
    <defs>
        <style>
            .cls-1{fill:none;stroke:#231f20;stroke-linecap:round;stroke-linejoin:round;stroke-width:2px}
        </style>
    </defs>
    <g id="Layer_2" data-name="Layer 2">
        <path class="cls-1" d="M11 1H3a2 2 0 0 0-2 2v8M30 1h8a2 2 0 0 1 2 2v8M11 36H3a2 2 0 0 1-2-2v-8m29 10h8a2 2 0 0 0 2-2v-8M9 10v18m4-18v18m0-18v18m4-18v18m0-18v18m4-18v18m0-18v18m4-18v18m0-18v18m4-18v18m0-18v18m4-18v18" id="Layer_2-2" data-name="Layer 2"/>
    </g>
</svg>
